<svg xmlns="http://www.w3.org/2000/svg" viewBox="0 0 512 512">
  <rect width="512" height="512" rx="100" fill="#0d0d0d"/>

  <!-- Stretchi tent silhouette -->
  <path d="M 256,26 C 208,74 156,112 96,152" stroke="white" stroke-width="15" fill="none" stroke-linecap="round" stroke-linejoin="round"/>
  <path d="M 256,26 C 304,74 356,112 416,152" stroke="white" stroke-width="15" fill="none" stroke-linecap="round" stroke-linejoin="round"/>
  <path d="M 96,152 C 48,218 24,298 10,394" stroke="white" stroke-width="13" fill="none" stroke-linecap="round"/>
  <path d="M 416,152 C 464,218 488,298 502,394" stroke="white" stroke-width="13" fill="none" stroke-linecap="round"/>
  <path d="M 96,152 C 148,186 202,208 256,218" stroke="white" stroke-width="12" fill="none" stroke-linecap="round"/>
  <path d="M 416,152 C 364,186 310,208 256,218" stroke="white" stroke-width="12" fill="none" stroke-linecap="round"/>

  <!-- Red mic circle -->
  <circle cx="256" cy="342" r="90" fill="#e94560"/>
  <rect x="232" y="288" width="48" height="80" rx="24" fill="white"/>
  <path d="M 214,342 a42,42 0 0 0 84,0" stroke="white" stroke-width="10" fill="none" stroke-linecap="round"/>
  <line x1="256" y1="384" x2="256" y2="406" stroke="white" stroke-width="10" stroke-linecap="round"/>
  <line x1="230" y1="406" x2="282" y2="406" stroke="white" stroke-width="10" stroke-linecap="round"/>

  <!-- Label -->
  <text x="256" y="490" font-family="Arial Black, Arial, sans-serif" font-size="38" font-weight="900" fill="white" text-anchor="middle" letter-spacing="4">STRETCHI TALK</text>
</svg>
