<svg xmlns="http://www.w3.org/2000/svg" viewBox="0 0 512 512">
  <defs>
    <clipPath id="mc">
      <ellipse cx="256" cy="228" rx="44" ry="56"/>
    </clipPath>
  </defs>
  <rect width="512" height="512" rx="76" fill="#0a0a0a"/>
  <path d="
    M 256,46
    C 298,72 332,104 354,136
    L 418,112
    L 464,160
    C 484,196 488,234 482,270
    C 474,304 452,324 422,330
    C 392,338 356,334 322,329
    C 296,325 272,314 256,298
    C 240,314 216,325 190,329
    C 156,334 120,338 90,330
    C 60,324 38,304 30,270
    C 24,234 28,196 48,160
    L 94,112
    L 158,136
    C 180,104 214,72 256,46 Z
  " fill="white"/>
  <line x1="256" y1="46" x2="418" y2="112" stroke="#0a0a0a" stroke-width="11" stroke-linecap="round"/>
  <line x1="256" y1="46" x2="94" y2="112"  stroke="#0a0a0a" stroke-width="11" stroke-linecap="round"/>
  <path d="M 256,50 C 273,98 285,162 290,228 C 293,264 290,292 281,314"
        stroke="#0a0a0a" stroke-width="8" fill="none" stroke-linecap="round"/>
  <path d="M 256,50 C 239,98 227,162 222,228 C 219,264 222,292 231,314"
        stroke="#0a0a0a" stroke-width="8" fill="none" stroke-linecap="round"/>
  <ellipse cx="256" cy="228" rx="44" ry="56" fill="#c41a1a"/>
  <g clip-path="url(#mc)">
    <line x1="205" y1="198" x2="307" y2="198" stroke="#e04444" stroke-width="5"/>
    <line x1="205" y1="212" x2="307" y2="212" stroke="#e04444" stroke-width="5"/>
    <line x1="205" y1="226" x2="307" y2="226" stroke="#e04444" stroke-width="5"/>
    <line x1="205" y1="240" x2="307" y2="240" stroke="#e04444" stroke-width="5"/>
    <line x1="205" y1="254" x2="307" y2="254" stroke="#e04444" stroke-width="5"/>
    <line x1="205" y1="268" x2="307" y2="268" stroke="#e04444" stroke-width="5"/>
  </g>
  <rect x="245" y="284" width="22" height="26" rx="4" fill="#c41a1a"/>
  <path d="M 222,318 Q 222,342 256,346 Q 290,342 290,318 Z" fill="#c41a1a"/>
  <ellipse cx="256" cy="318" rx="34" ry="11" fill="#c41a1a"/>
  <text x="256" y="430"
        font-family="'Arial Black', Impact, 'Helvetica Neue', sans-serif"
        font-size="64" font-weight="900"
        fill="white" text-anchor="middle" letter-spacing="3">STRETCHI</text>
</svg>
